<svg width="145" height="145" viewBox="0 0 145 145" fill="none" xmlns="http://www.w3.org/2000/svg">
<path d="M50.2686 117.246C47.7764 118.322 44.8877 117.812 42.9053 115.943L2.12402 77.4277C0.764648 76.1533 0 74.3691 0 72.5C0 70.6309 0.764648 68.8467 2.12402 67.5723L42.9053 29.0566C44.8877 27.1875 47.7764 26.6777 50.2686 27.7539C52.7607 28.8301 54.375 31.2939 54.375 33.9844V54.375H135.938C140.95 54.375 145 58.4248 145 63.4375V81.5625C145 86.5752 140.95 90.625 135.938 90.625H54.375V111.016C54.375 113.734 52.7607 116.17 50.2686 117.246Z" fill="#F5F5F5"/>
</svg>
